<svg xmlns="http://www.w3.org/2000/svg" version="1.1" xmlns:xlink="http://www.w3.org/1999/xlink" xmlns:svgjs="http://svgjs.com/svgjs" width="1440" height="560" preserveAspectRatio="none" viewBox="0 0 1440 560" opacity='0.7'>
    <g mask="url(&quot;#SvgjsMask4762&quot;)" fill="none">
        <rect width="1440" height="560" x="0" y="0" fill="url(#SvgjsLinearGradient4763)"></rect>
        <path d="M700 80.37C677.21 80.37 650.46 106.28 650.46 140C650.46 198.02 677.92 263.85 700 263.85C721.41 263.85 737.44 199.41 737.44 140C737.44 107.67 720.7 80.37 700 80.37" stroke="rgba(218, 182, 252, 1)" stroke-width="2"></path>
        <path d="M280 380C275.72 380 271.38 400.91 271.38 420C271.38 426.86 275.71 431.91 280 431.91C284.26 431.91 288.48 426.84 288.48 420C288.48 400.88 284.27 380 280 380" stroke="rgba(218, 182, 252, 1)" stroke-width="2"></path>
        <path d="M1092 560C1092 542.15 1108.52 507.5 1120 507.5C1130.6 507.5 1136.15 539.71 1136.15 560C1136.15 565.96 1128.07 560 1120 560C1106 560 1092 568.4 1092 560" stroke="rgba(218, 182, 252, 1)" stroke-width="2"></path>
        <path d="M0 57.93C45.41 12.52 70 28.96 140 0C140 0 140 0 140 0C210 0 210 0 280 0C302.64 0 325.29 -15.59 325.29 0C325.29 43.64 301.79 58.95 280 118.46C276.16 128.95 282.55 133.22 274.04 140C212.55 188.99 212.41 215.2 140 230C75.39 243.2 50.41 228.4 0 196C-19.59 183.4 0 168 0 140C0 98.97 -24.59 82.52 0 57.93" stroke="rgba(218, 182, 252, 1)" stroke-width="2"></path>
        <path d="M301.54 140C325.98 96.1 358.6 104.29 420 94.71C487.83 84.12 496.42 83.36 560 99.66C584.73 106 596.62 118.23 596.62 140C596.62 167.43 578.19 168.95 560 198.05C534.43 238.95 521.38 234.79 509.09 280C491.22 345.76 487.3 353.04 499.69 420C512.76 490.63 529.45 487.8 560 555.17C561.19 557.8 563.18 558.44 563.18 560C563.18 560.86 561.59 560 560 560C490 560 490 560 420 560C350 560 350 560 280 560C210 560 210 560 140 560C112 560 101.55 578.04 84 560C33.44 508.04 -10.31 476.01 3.78 420C17.69 364.7 77.54 337.38 140 337.38C184.42 337.38 181.47 376.46 217.54 420C251.47 460.96 248.93 506.38 280 506.38C310.92 506.38 333.65 468.36 341.52 420C352.07 355.17 326.88 350.33 316.84 280C306.89 210.33 274.4 188.75 301.54 140" stroke="rgba(218, 182, 252, 1)" stroke-width="2"></path>
        <path d="M700 15.56C691.58 15.56 682.5 4.45 682.5 0C682.5 -3.33 691.25 0 700 0C707.37 0 714.74 -3.17 714.74 0C714.74 4.61 707.7 15.56 700 15.56" stroke="rgba(218, 182, 252, 1)" stroke-width="2"></path>
        <path d="M778.14 140C778.14 109.29 802 96.44 840 80.22C902.93 53.36 909.39 59.96 980 53.85C1049.39 47.85 1053.34 70.03 1120 56C1181.27 43.11 1176.92 23.58 1235.86 0C1246.92 -4.42 1247.93 0 1260 0C1266.73 0 1273.19 -6.13 1273.46 0C1276.24 63.87 1256.73 71.73 1266.09 140C1275.92 211.73 1313.48 211.25 1311.85 280C1310.44 339.59 1291.67 396.67 1260 396.67C1224.57 396.67 1226.46 328.62 1177.65 280C1156.46 258.89 1146.33 257.21 1120 257.21C1106.61 257.21 1110.04 269.6 1098.22 280C1040.04 331.18 1031.99 380.38 980 380.38C939.63 380.38 951.07 326.66 913.5 280C881.07 239.72 876.12 243.86 840 206.5C808.44 173.86 778.14 172.43 778.14 140" stroke="rgba(218, 182, 252, 1)" stroke-width="2"></path>
        <path d="M1540 61.6C1523.3 61.6 1482.25 18.29 1482.25 0C1482.25 -12.51 1526.03 -14.9 1540 0C1554.9 15.9 1552.18 61.6 1540 61.6" stroke="rgba(218, 182, 252, 1)" stroke-width="2"></path>
        <path d="M1295 420C1295 400.97 1353.13 383.48 1400 383.48C1419.18 383.48 1427.1 401.45 1427.1 420C1427.1 439.71 1419.86 460 1400 460C1353.81 460 1295 439.23 1295 420" stroke="rgba(218, 182, 252, 1)" stroke-width="2"></path>
        <path d="M1442.86 560C1442.86 537.2 1510.36 479.32 1540 479.32C1558.93 479.32 1562.04 541.7 1540 560C1513.47 582.04 1442.86 577.54 1442.86 560" stroke="rgba(218, 182, 252, 1)" stroke-width="2"></path>
        <path d="M0 118.28C60.92 91.21 77.28 70.95 140 77.78C177.07 81.81 199.57 112.12 199.57 140C199.57 163.23 173.46 177.52 140 180C73.67 184.93 63.4 172.93 0 154.82C-6.6 152.93 0 147.41 0 140C0 129.14 -9.08 122.32 0 118.28" stroke="rgba(218, 182, 252, 1)" stroke-width="2"></path>
        <path d="M818.84 140C818.84 129.49 826.67 119.55 840 119.55C878.61 119.55 922.73 129.24 922.73 140C922.73 150.84 878.14 162.75 840 162.75C826.19 162.75 818.84 151.09 818.84 140" stroke="rgba(218, 182, 252, 1)" stroke-width="2"></path>
        <path d="M1043 140C1043 124.98 1082.83 114.33 1120 114.33C1143.33 114.33 1164 125.46 1164 140C1164 156.2 1144.23 175.81 1120 175.81C1083.73 175.81 1043 155.72 1043 140" stroke="rgba(218, 182, 252, 1)" stroke-width="2"></path>
        <path d="M1540 14.93C1535.95 14.93 1526 4.43 1526 0C1526 -3.03 1536.61 -3.61 1540 0C1543.61 3.85 1542.95 14.93 1540 14.93" stroke="rgba(218, 182, 252, 1)" stroke-width="2"></path>
        <path d="M378.25 280C383.12 238.52 400.26 203.23 420 203.23C439.16 203.23 451.19 239.18 456.06 280C464.12 347.56 439.94 350.92 445.85 420C451.91 490.92 489.13 510.58 480 560C476.2 580.58 450 560 420 560C369.6 560 324.14 587.16 319.2 560C311.41 517.16 378.9 494.21 394.55 420C408.42 354.21 370.4 346.9 378.25 280" stroke="rgba(218, 182, 252, 1)" stroke-width="2"></path>
        <path d="M957.25 280C957.25 240.45 964.76 197.27 980 197.27C996.36 197.27 1020.44 242.86 1020.44 280C1020.44 301.4 997.79 314.34 980 314.34C966.19 314.34 957.25 298.99 957.25 280" stroke="rgba(218, 182, 252, 1)" stroke-width="2"></path>
        <path d="M98.38 420C98.38 400.74 120.92 394.75 140 394.75C153.57 394.75 163.69 404.27 163.69 420C163.69 465.02 155.87 516.25 140 516.25C123.21 516.25 98.38 461.49 98.38 420" stroke="rgba(218, 182, 252, 1)" stroke-width="2"></path>
        <path d="M1514.29 560C1514.29 553.96 1532.16 538.64 1540 538.64C1545.01 538.64 1545.83 555.15 1540 560C1532.98 565.83 1514.29 564.64 1514.29 560" stroke="rgba(218, 182, 252, 1)" stroke-width="2"></path>
    </g>
    <defs>
        <mask id="SvgjsMask4762">
            <rect width="1440" height="560" fill="#ffffff"></rect>
        </mask>
        <linearGradient x1="0%" y1="50%" x2="100%" y2="50%" gradientUnits="userSpaceOnUse" id="SvgjsLinearGradient4763">
            <stop stop-color="rgba(173, 167, 255, 0.51)" offset="0.31"></stop>
            <stop stop-color="rgba(129, 135, 220, 1)" offset="1"></stop>
        </linearGradient>
    </defs>
</svg>