<svg xmlns="http://www.w3.org/2000/svg" version="1.1" xmlns:xlink="http://www.w3.org/1999/xlink" xmlns:svgjs="http://svgjs.com/svgjs" width="1440" height="560" preserveAspectRatio="none" viewBox="0 0 1440 560" opacity='0.1'>
    <g mask="url(&quot;#SvgjsMask1000&quot;)" fill="none">
        <use xlink:href="#SvgjsG1006" transform="translate(0, 0)" fill="rgba(129, 135, 220, 1)"></use>
        <use xlink:href="#SvgjsG1006" transform="translate(0, 420)" fill="rgba(129, 135, 220, 1)"></use>
        <use xlink:href="#SvgjsG1006" transform="translate(420, 0)" fill="rgba(129, 135, 220, 1)"></use>
        <use xlink:href="#SvgjsG1006" transform="translate(420, 420)" fill="rgba(129, 135, 220, 1)"></use>
        <use xlink:href="#SvgjsG1006" transform="translate(840, 0)" fill="rgba(129, 135, 220, 1)"></use>
        <use xlink:href="#SvgjsG1006" transform="translate(840, 420)" fill="rgba(129, 135, 220, 1)"></use>
        <use xlink:href="#SvgjsG1006" transform="translate(1260, 0)" fill="rgba(129, 135, 220, 1)"></use>
        <use xlink:href="#SvgjsG1006" transform="translate(1260, 420)" fill="rgba(129, 135, 220, 1)"></use>
    </g>
    <defs>
        <mask id="SvgjsMask1000">
            <rect width="1440" height="560" fill="#ffffff"></rect>
        </mask>
        <g id="SvgjsG1004">
            <path d="M6.038 10.472H10.08v3.613c0 0.594 0.479 1.073 1.073 1.073s1.066-0.479 1.066-1.073V10.472c0.322 0 0.358-0.207 0.358-0.451V7.323l-3.384-1.652H2.004l-0.923-0.526c-0.3-0.169-0.679-0.061-0.844 0.232a0.613 0.613 0 0 0 0.234 0.844l1.458 0.838v7.026a1.071 1.071 0 0 0 1.073 1.073c0.587 0 1.066-0.479 1.065-1.073v-2.754L6 14.607c0.309 0.508 0.966 0.673 1.467 0.372a1.073 1.073 0 0 0 0.372-1.466l-1.803-3.041z m3.484-5.538l3.047 1.452v-0.573h2.476l0.908-1.96L9.522 0.791v4.143z" fill-rule="evenodd"></path>
        </g>
        <g id="SvgjsG1003">
            <path d="M2.396 6.756V16h3.56V10.315H10.085V16h3.559V6.756z"></path>
            <path d="M0.064 8L8.02 0l7.956 8z"></path>
        </g>
        <g id="SvgjsG1001">
            <path d="M14.643 3.297L12.92 2.57c-0.7-0.265-0.057-0.792-0.963-1.24-0.4-0.19-1.898-0.515-1.898-0.515-0.352-0.122-1.376 0.23-1.376 0.935 0 0.7-0.172 0.755-0.172 0.755-0.734 1.576-0.294 0.874-0.645 2.42-0.014 0.08-0.06 0.295-0.265 0.7C6.875 7.06 5 8.704 3.398 9.627c-1.87 1.09-1.84 3.95-1.84 3.95-1.372-0.09-1.344-2.16-1.344-2.16-0.992 2.54 1.784 3.238 1.784 3.238 0.67 0.67 1.984 0.498 1.984 0.498 0.498-0.064 0.555 0.025 0.555 0.025s0.06 0.268 0.877 0.293c0.817 0.03 1.547-0.054 1.898 0.122 0.35 0.164 1.11 0.2 1.11 0.2 0.556 0.147 0.495-0.47 0.495-0.47-0.29-0.67-0.992-0.608-0.992-0.608l-1.372-0.06c1.927-0.61 1.604-1.748 1.604-1.748-0.168-0.646-0.77-0.75-1.192-0.764-0.068-0.007 0-0.086 0-0.086 1.178-0.34 2.245-1.117 2.245-1.117-0.028 0.587 0.527 1.49 0.788 1.9 0.265 0.413 0.702 2.078 0.702 2.078 0.322 0.352 0.437 0.646 0.437 0.646 0.265 0.175 1.17 0.14 1.17 0.14 0.234-0.03 0.29-0.11 0.29-0.11l0.033-0.564c-0.15-0.64-0.877-0.64-0.877-0.64l-0.763-3.267c-0.086-0.526 0.294-1.17 0.294-1.17 0.44-1.397-0.32-2.834-0.32-2.834-0.088-0.206 0.263-0.206 0.263-0.206s0.204-0.094 0.702-0.262c0.493-0.172 0.23-0.788 0.23-0.788l-0.264-0.873c-0.086-0.408 0.734 0.054 0.734 0.054 0.874 0.498 1.576-0.236 1.752-0.376 0.175-0.147 0.118-0.322 0.494-0.673 0.38-0.348-0.233-0.698-0.233-0.698" fill-rule="evenodd"></path>
        </g>
        <g id="SvgjsG1002">
            <path d="M8.76 6.296L0.5 2.37v-0.78L9.032 5.68l-0.274 0.614zM5.936 10.61h3.614v3.226a0.954 0.954 0 0 0 1.91 0V10.61c0.286 0 0.314-0.188 0.314-0.406V7.8l-3.02-1.48h-6.42l-0.828-0.468a0.552 0.552 0 0 0-0.754 0.208c-0.15 0.264-0.06 0.6 0.208 0.754l1.308 0.75v6.272a0.954 0.954 0 0 0 1.91 0L4.172 11.38l1.73 2.92a0.96 0.96 0 0 0 1.312 0.334 0.966 0.966 0 0 0 0.328-1.314l-1.612-2.71z m3.114-4.946l2.72 1.292v-0.506l2.214-0.004 0.812-1.746L9.05 1.96v3.704z" fill-rule="evenodd"></path>
        </g>
        <g id="SvgjsG1005">
            <path d="M8 14.66l5.904-5.908c1.836-1.836 1.8-4.512 0.132-6.174A4.268 4.268 0 0 0 8 2.58a4.264 4.264 0 0 0-6.03-0.02C0.3 4.24 0.26 6.92 2.1 8.744L8 14.66z"></path>
        </g>
        <g id="SvgjsG1006">
            <use xlink:href="#SvgjsG1001" transform="translate(0, 0) scale(2.1)" fill="rgba(129, 135, 220, 1)"></use>
            <use xlink:href="#SvgjsG1001" transform="translate(0, 42) scale(2.1)" fill="rgba(129, 135, 220, 1)"></use>
            <use xlink:href="#SvgjsG1002" transform="translate(0, 84) scale(2.1)" fill="rgba(129, 135, 220, 1)"></use>
            <use xlink:href="#SvgjsG1003" transform="translate(0, 126) scale(2.1)" fill="rgba(129, 135, 220, 1)"></use>
            <use xlink:href="#SvgjsG1001" transform="translate(0, 168) scale(2.1)" fill="rgba(129, 135, 220, 1)"></use>
            <use xlink:href="#SvgjsG1003" transform="translate(0, 210) scale(2.1)" fill="rgba(129, 135, 220, 1)"></use>
            <use xlink:href="#SvgjsG1001" transform="translate(0, 252) scale(2.1)" fill="rgba(129, 135, 220, 1)"></use>
            <use xlink:href="#SvgjsG1003" transform="translate(0, 294) scale(2.1)" fill="rgba(129, 135, 220, 1)"></use>
            <use xlink:href="#SvgjsG1002" transform="translate(0, 336) scale(2.1)" fill="rgba(129, 135, 220, 1)"></use>
            <use xlink:href="#SvgjsG1004" transform="translate(0, 378) scale(2.1)" fill="rgba(129, 135, 220, 1)"></use>
            <use xlink:href="#SvgjsG1004" transform="translate(42, 0) scale(2.1)" fill="rgba(129, 135, 220, 1)"></use>
            <use xlink:href="#SvgjsG1004" transform="translate(42, 42) scale(2.1)" fill="rgba(129, 135, 220, 1)"></use>
            <use xlink:href="#SvgjsG1005" transform="translate(42, 84) scale(2.1)" fill="rgba(129, 135, 220, 1)"></use>
            <use xlink:href="#SvgjsG1002" transform="translate(42, 126) scale(2.1)" fill="rgba(129, 135, 220, 1)"></use>
            <use xlink:href="#SvgjsG1002" transform="translate(42, 168) scale(2.1)" fill="rgba(129, 135, 220, 1)"></use>
            <use xlink:href="#SvgjsG1003" transform="translate(42, 210) scale(2.1)" fill="rgba(129, 135, 220, 1)"></use>
            <use xlink:href="#SvgjsG1002" transform="translate(42, 252) scale(2.1)" fill="rgba(129, 135, 220, 1)"></use>
            <use xlink:href="#SvgjsG1004" transform="translate(42, 294) scale(2.1)" fill="rgba(129, 135, 220, 1)"></use>
            <use xlink:href="#SvgjsG1005" transform="translate(42, 336) scale(2.1)" fill="rgba(129, 135, 220, 1)"></use>
            <use xlink:href="#SvgjsG1005" transform="translate(42, 378) scale(2.1)" fill="rgba(129, 135, 220, 1)"></use>
            <use xlink:href="#SvgjsG1001" transform="translate(84, 0) scale(2.1)" fill="rgba(129, 135, 220, 1)"></use>
            <use xlink:href="#SvgjsG1002" transform="translate(84, 42) scale(2.1)" fill="rgba(129, 135, 220, 1)"></use>
            <use xlink:href="#SvgjsG1001" transform="translate(84, 84) scale(2.1)" fill="rgba(129, 135, 220, 1)"></use>
            <use xlink:href="#SvgjsG1002" transform="translate(84, 126) scale(2.1)" fill="rgba(129, 135, 220, 1)"></use>
            <use xlink:href="#SvgjsG1005" transform="translate(84, 168) scale(2.1)" fill="rgba(129, 135, 220, 1)"></use>
            <use xlink:href="#SvgjsG1004" transform="translate(84, 210) scale(2.1)" fill="rgba(129, 135, 220, 1)"></use>
            <use xlink:href="#SvgjsG1003" transform="translate(84, 252) scale(2.1)" fill="rgba(129, 135, 220, 1)"></use>
            <use xlink:href="#SvgjsG1002" transform="translate(84, 294) scale(2.1)" fill="rgba(129, 135, 220, 1)"></use>
            <use xlink:href="#SvgjsG1001" transform="translate(84, 336) scale(2.1)" fill="rgba(129, 135, 220, 1)"></use>
            <use xlink:href="#SvgjsG1001" transform="translate(84, 378) scale(2.1)" fill="rgba(129, 135, 220, 1)"></use>
            <use xlink:href="#SvgjsG1005" transform="translate(126, 0) scale(2.1)" fill="rgba(129, 135, 220, 1)"></use>
            <use xlink:href="#SvgjsG1003" transform="translate(126, 42) scale(2.1)" fill="rgba(129, 135, 220, 1)"></use>
            <use xlink:href="#SvgjsG1004" transform="translate(126, 84) scale(2.1)" fill="rgba(129, 135, 220, 1)"></use>
            <use xlink:href="#SvgjsG1004" transform="translate(126, 126) scale(2.1)" fill="rgba(129, 135, 220, 1)"></use>
            <use xlink:href="#SvgjsG1004" transform="translate(126, 168) scale(2.1)" fill="rgba(129, 135, 220, 1)"></use>
            <use xlink:href="#SvgjsG1005" transform="translate(126, 210) scale(2.1)" fill="rgba(129, 135, 220, 1)"></use>
            <use xlink:href="#SvgjsG1003" transform="translate(126, 252) scale(2.1)" fill="rgba(129, 135, 220, 1)"></use>
            <use xlink:href="#SvgjsG1003" transform="translate(126, 294) scale(2.1)" fill="rgba(129, 135, 220, 1)"></use>
            <use xlink:href="#SvgjsG1004" transform="translate(126, 336) scale(2.1)" fill="rgba(129, 135, 220, 1)"></use>
            <use xlink:href="#SvgjsG1002" transform="translate(126, 378) scale(2.1)" fill="rgba(129, 135, 220, 1)"></use>
            <use xlink:href="#SvgjsG1002" transform="translate(168, 0) scale(2.1)" fill="rgba(129, 135, 220, 1)"></use>
            <use xlink:href="#SvgjsG1001" transform="translate(168, 42) scale(2.1)" fill="rgba(129, 135, 220, 1)"></use>
            <use xlink:href="#SvgjsG1003" transform="translate(168, 84) scale(2.1)" fill="rgba(129, 135, 220, 1)"></use>
            <use xlink:href="#SvgjsG1005" transform="translate(168, 126) scale(2.1)" fill="rgba(129, 135, 220, 1)"></use>
            <use xlink:href="#SvgjsG1004" transform="translate(168, 168) scale(2.1)" fill="rgba(129, 135, 220, 1)"></use>
            <use xlink:href="#SvgjsG1004" transform="translate(168, 210) scale(2.1)" fill="rgba(129, 135, 220, 1)"></use>
            <use xlink:href="#SvgjsG1004" transform="translate(168, 252) scale(2.1)" fill="rgba(129, 135, 220, 1)"></use>
            <use xlink:href="#SvgjsG1001" transform="translate(168, 294) scale(2.1)" fill="rgba(129, 135, 220, 1)"></use>
            <use xlink:href="#SvgjsG1002" transform="translate(168, 336) scale(2.1)" fill="rgba(129, 135, 220, 1)"></use>
            <use xlink:href="#SvgjsG1003" transform="translate(168, 378) scale(2.1)" fill="rgba(129, 135, 220, 1)"></use>
            <use xlink:href="#SvgjsG1005" transform="translate(210, 0) scale(2.1)" fill="rgba(129, 135, 220, 1)"></use>
            <use xlink:href="#SvgjsG1005" transform="translate(210, 42) scale(2.1)" fill="rgba(129, 135, 220, 1)"></use>
            <use xlink:href="#SvgjsG1005" transform="translate(210, 84) scale(2.1)" fill="rgba(129, 135, 220, 1)"></use>
            <use xlink:href="#SvgjsG1003" transform="translate(210, 126) scale(2.1)" fill="rgba(129, 135, 220, 1)"></use>
            <use xlink:href="#SvgjsG1004" transform="translate(210, 168) scale(2.1)" fill="rgba(129, 135, 220, 1)"></use>
            <use xlink:href="#SvgjsG1001" transform="translate(210, 210) scale(2.1)" fill="rgba(129, 135, 220, 1)"></use>
            <use xlink:href="#SvgjsG1002" transform="translate(210, 252) scale(2.1)" fill="rgba(129, 135, 220, 1)"></use>
            <use xlink:href="#SvgjsG1001" transform="translate(210, 294) scale(2.1)" fill="rgba(129, 135, 220, 1)"></use>
            <use xlink:href="#SvgjsG1005" transform="translate(210, 336) scale(2.1)" fill="rgba(129, 135, 220, 1)"></use>
            <use xlink:href="#SvgjsG1002" transform="translate(210, 378) scale(2.1)" fill="rgba(129, 135, 220, 1)"></use>
            <use xlink:href="#SvgjsG1003" transform="translate(252, 0) scale(2.1)" fill="rgba(129, 135, 220, 1)"></use>
            <use xlink:href="#SvgjsG1004" transform="translate(252, 42) scale(2.1)" fill="rgba(129, 135, 220, 1)"></use>
            <use xlink:href="#SvgjsG1001" transform="translate(252, 84) scale(2.1)" fill="rgba(129, 135, 220, 1)"></use>
            <use xlink:href="#SvgjsG1001" transform="translate(252, 126) scale(2.1)" fill="rgba(129, 135, 220, 1)"></use>
            <use xlink:href="#SvgjsG1005" transform="translate(252, 168) scale(2.1)" fill="rgba(129, 135, 220, 1)"></use>
            <use xlink:href="#SvgjsG1005" transform="translate(252, 210) scale(2.1)" fill="rgba(129, 135, 220, 1)"></use>
            <use xlink:href="#SvgjsG1005" transform="translate(252, 252) scale(2.1)" fill="rgba(129, 135, 220, 1)"></use>
            <use xlink:href="#SvgjsG1004" transform="translate(252, 294) scale(2.1)" fill="rgba(129, 135, 220, 1)"></use>
            <use xlink:href="#SvgjsG1001" transform="translate(252, 336) scale(2.1)" fill="rgba(129, 135, 220, 1)"></use>
            <use xlink:href="#SvgjsG1004" transform="translate(252, 378) scale(2.1)" fill="rgba(129, 135, 220, 1)"></use>
            <use xlink:href="#SvgjsG1001" transform="translate(294, 0) scale(2.1)" fill="rgba(129, 135, 220, 1)"></use>
            <use xlink:href="#SvgjsG1005" transform="translate(294, 42) scale(2.1)" fill="rgba(129, 135, 220, 1)"></use>
            <use xlink:href="#SvgjsG1005" transform="translate(294, 84) scale(2.1)" fill="rgba(129, 135, 220, 1)"></use>
            <use xlink:href="#SvgjsG1005" transform="translate(294, 126) scale(2.1)" fill="rgba(129, 135, 220, 1)"></use>
            <use xlink:href="#SvgjsG1005" transform="translate(294, 168) scale(2.1)" fill="rgba(129, 135, 220, 1)"></use>
            <use xlink:href="#SvgjsG1004" transform="translate(294, 210) scale(2.1)" fill="rgba(129, 135, 220, 1)"></use>
            <use xlink:href="#SvgjsG1003" transform="translate(294, 252) scale(2.1)" fill="rgba(129, 135, 220, 1)"></use>
            <use xlink:href="#SvgjsG1004" transform="translate(294, 294) scale(2.1)" fill="rgba(129, 135, 220, 1)"></use>
            <use xlink:href="#SvgjsG1005" transform="translate(294, 336) scale(2.1)" fill="rgba(129, 135, 220, 1)"></use>
            <use xlink:href="#SvgjsG1004" transform="translate(294, 378) scale(2.1)" fill="rgba(129, 135, 220, 1)"></use>
            <use xlink:href="#SvgjsG1001" transform="translate(336, 0) scale(2.1)" fill="rgba(129, 135, 220, 1)"></use>
            <use xlink:href="#SvgjsG1001" transform="translate(336, 42) scale(2.1)" fill="rgba(129, 135, 220, 1)"></use>
            <use xlink:href="#SvgjsG1005" transform="translate(336, 84) scale(2.1)" fill="rgba(129, 135, 220, 1)"></use>
            <use xlink:href="#SvgjsG1005" transform="translate(336, 126) scale(2.1)" fill="rgba(129, 135, 220, 1)"></use>
            <use xlink:href="#SvgjsG1003" transform="translate(336, 168) scale(2.1)" fill="rgba(129, 135, 220, 1)"></use>
            <use xlink:href="#SvgjsG1003" transform="translate(336, 210) scale(2.1)" fill="rgba(129, 135, 220, 1)"></use>
            <use xlink:href="#SvgjsG1004" transform="translate(336, 252) scale(2.1)" fill="rgba(129, 135, 220, 1)"></use>
            <use xlink:href="#SvgjsG1001" transform="translate(336, 294) scale(2.1)" fill="rgba(129, 135, 220, 1)"></use>
            <use xlink:href="#SvgjsG1002" transform="translate(336, 336) scale(2.1)" fill="rgba(129, 135, 220, 1)"></use>
            <use xlink:href="#SvgjsG1005" transform="translate(336, 378) scale(2.1)" fill="rgba(129, 135, 220, 1)"></use>
            <use xlink:href="#SvgjsG1001" transform="translate(378, 0) scale(2.1)" fill="rgba(129, 135, 220, 1)"></use>
            <use xlink:href="#SvgjsG1001" transform="translate(378, 42) scale(2.1)" fill="rgba(129, 135, 220, 1)"></use>
            <use xlink:href="#SvgjsG1002" transform="translate(378, 84) scale(2.1)" fill="rgba(129, 135, 220, 1)"></use>
            <use xlink:href="#SvgjsG1001" transform="translate(378, 126) scale(2.1)" fill="rgba(129, 135, 220, 1)"></use>
            <use xlink:href="#SvgjsG1003" transform="translate(378, 168) scale(2.1)" fill="rgba(129, 135, 220, 1)"></use>
            <use xlink:href="#SvgjsG1004" transform="translate(378, 210) scale(2.1)" fill="rgba(129, 135, 220, 1)"></use>
            <use xlink:href="#SvgjsG1003" transform="translate(378, 252) scale(2.1)" fill="rgba(129, 135, 220, 1)"></use>
            <use xlink:href="#SvgjsG1005" transform="translate(378, 294) scale(2.1)" fill="rgba(129, 135, 220, 1)"></use>
            <use xlink:href="#SvgjsG1002" transform="translate(378, 336) scale(2.1)" fill="rgba(129, 135, 220, 1)"></use>
            <use xlink:href="#SvgjsG1002" transform="translate(378, 378) scale(2.1)" fill="rgba(129, 135, 220, 1)"></use>
        </g>
    </defs>
</svg>